<svg xmlns="http://www.w3.org/2000/svg" xmlns:xlink="http://www.w3.org/1999/xlink" width="36" height="36" viewBox="0 0 36 36">
    <defs>
        <path id="prefix__a" d="M0 0H36V36H0z"/>
    </defs>
    <g fill="none" fill-rule="evenodd">
        <mask id="prefix__b" fill="#fff">
            <use xlink:href="#prefix__a"/>
        </mask>
        <path fill="#051A15" d="M24.505 6.75c1.1 0 2.038.795 2.22 1.88l1.102 6.619 1.305.001c.385 0 .708.292.746.675l.7 7c.042.413-.26.78-.671.821l-.038.003h-1.76l.001 2.651c0 .414-.336.75-.75.75h-2.655c-.414 0-.75-.336-.75-.75l-.001-2.651H11.865V26.4c0 .414-.335.75-.75.75H8.462c-.414 0-.75-.336-.75-.75l-.001-2.651-1.72.001c-.415 0-.75-.336-.75-.75l.003-.075.7-7c.039-.383.361-.675.747-.675l1.304-.001L9.097 8.63c.181-1.085 1.12-1.88 2.22-1.88h13.188zM11.11 17.8c-.94 0-1.7.761-1.7 1.7s.76 1.7 1.7 1.7c.939 0 1.7-.761 1.7-1.7s-.761-1.7-1.7-1.7zm13.6 0c-.94 0-1.7.761-1.7 1.7s.76 1.7 1.7 1.7c.939 0 1.7-.761 1.7-1.7s-.761-1.7-1.7-1.7zm-1.486-8.5H12.596c-.32 0-.6.203-.706.496l-.034.13-.745 4.474h13.6l-.746-4.473c-.06-.362-.373-.627-.74-.627z" mask="url(#prefix__b)"/>
    </g>
</svg>
