<svg xmlns="http://www.w3.org/2000/svg" width="36" height="36" viewBox="0 0 36 36">
    <path fill="#051A15" fill-rule="evenodd" d="M14.115 29.4c0 .414-.336.75-.75.75H10.71c-.414 0-.75-.336-.75-.75v-2.448C8.56 26.697 7.5 25.472 7.5 24V9c0-2.485 2.015-4.5 4.5-4.5h12c2.485 0 4.5 2.015 4.5 4.5v15c0 1.566-1.2 2.851-2.73 2.988V29.4c0 .414-.336.75-.75.75h-2.655c-.414 0-.75-.336-.75-.75V27h-7.5v2.4zM12 21c-.828 0-1.5.672-1.5 1.5S11.172 24 12 24s1.5-.672 1.5-1.5S12.828 21 12 21zm12 0c-.828 0-1.5.672-1.5 1.5S23.172 24 24 24s1.5-.672 1.5-1.5S24.828 21 24 21zm.75-10.5h-13.5c-.368 0-.674.265-.738.615l-.012.135v6c0 .368.265.674.615.738l.135.012h13.5c.368 0 .674-.265.738-.615l.012-.135v-6c0-.414-.336-.75-.75-.75zM19.5 6.75h-3v1.5h3v-1.5z"/>
</svg>
