<svg xmlns="http://www.w3.org/2000/svg" width="85" height="86" viewBox="0 0 85 86">
    <g fill="none" fill-rule="evenodd" transform="translate(0 -1)">
        <circle cx="24" cy="24" r="24" fill="#CAC900" transform="translate(37 39)"/>
        <circle cx="12" cy="12" r="12" fill="#CAC900" transform="translate(0 1)"/>
        <path fill="#051A15" d="M42.5 55.2c.828 0 1.5.672 1.5 1.5v1.5c0 .828-.672 1.5-1.5 1.5h-9c-.828 0-1.5-.672-1.5-1.5v-1.5c0-.828.672-1.5 1.5-1.5h9zm-4.5-42c9.941 0 18 8.059 18 18 0 6.662-3.62 12.479-8.999 15.591L47 49.2c0 1.657-1.343 3-3 3H32c-1.657 0-3-1.343-3-3v-2.408c-5.38-3.113-9-8.93-9-15.592 0-9.941 8.059-18 18-18zm-10.95-3c1.077 0 1.95.873 1.95 1.95s-.873 1.95-1.95 1.95-1.95-.873-1.95-1.95.873-1.95 1.95-1.95zm21.9 0c1.077 0 1.95.873 1.95 1.95s-.873 1.95-1.95 1.95S47 13.227 47 12.15s.873-1.95 1.95-1.95zM38 6.6c1.243 0 2.25 1.007 2.25 2.25S39.243 11.1 38 11.1s-2.25-1.007-2.25-2.25S36.757 6.6 38 6.6z"/>
    </g>
</svg>
