<svg xmlns="http://www.w3.org/2000/svg" xmlns:xlink="http://www.w3.org/1999/xlink" width="128" height="111" viewBox="0 0 128 111">
    <defs>
        <path id="prefix__a" d="M0 0H72V72H0z"/>
    </defs>
    <g fill="none" fill-rule="evenodd" transform="translate(0 -12)">
        <circle cx="28.5" cy="69.5" r="28.5" fill="#CAC900"/>
        <g transform="translate(3)">
            <path fill="#051A15" d="M46.868 40.944c.748 0 1.354.755 1.354 1.685 0 .931-.606 1.686-1.354 1.686H31.527c-2.243 0-4.061 2.263-4.061 5.056 0 2.792 1.818 5.056 4.06 5.056H54.99c3.738 0 6.768 3.772 6.768 8.426s-3.03 8.427-6.768 8.427H36.04c-.748 0-1.354-.754-1.354-1.685s.606-1.686 1.354-1.686H54.99c2.243 0 4.061-2.263 4.061-5.056 0-2.792-1.818-5.056-4.06-5.056H31.526c-3.738 0-6.769-3.772-6.769-8.426s3.03-8.427 6.769-8.427h15.341zM55.578 12c6.947 0 12.578 5.478 12.578 12.234 0 4.505-4.192 10.913-12.578 19.226C47.193 35.147 43 28.739 43 24.234 43 17.478 48.631 12 55.578 12zm0 6.991c-2.977 0-5.39 2.348-5.39 5.243 0 2.896 2.413 5.244 5.39 5.244s5.39-2.348 5.39-5.244c0-2.895-2.413-5.243-5.39-5.243z"/>
            <ellipse cx="25.336" cy="70.718" fill="#FFF" rx="8.086" ry="7.865"/>
        </g>
        <circle cx="112" cy="107" r="16" fill="#CAC900"/>
        <g transform="translate(52 56)">
            <mask id="prefix__b" fill="#fff">
                <use xlink:href="#prefix__a"/>
            </mask>
            <path fill="#051A15" d="M49.01 13.5c2.2 0 4.077 1.59 4.438 3.76l2.205 13.238 2.611.002c.77 0 1.416.584 1.493 1.35l1.4 14c.082.825-.52 1.56-1.344 1.643l-.074.005h-3.522l.003 5.302c0 .828-.672 1.5-1.5 1.5h-5.31c-.828 0-1.5-.672-1.5-1.5l-.003-5.302H23.73l.002 5.302c0 .828-.672 1.5-1.5 1.5h-5.31c-.829 0-1.5-.672-1.5-1.5l-.002-5.302-3.441.002c-.828 0-1.5-.672-1.5-1.5l.007-.15 1.4-14c.077-.766.722-1.35 1.493-1.35l2.608-.002 2.208-13.238c.361-2.17 2.239-3.76 4.439-3.76h26.375zM22.221 35.6c-1.878 0-3.4 1.522-3.4 3.4s1.522 3.4 3.4 3.4c1.877 0 3.4-1.522 3.4-3.4s-1.523-3.4-3.4-3.4zm27.2 0c-1.878 0-3.4 1.522-3.4 3.4s1.522 3.4 3.4 3.4c1.877 0 3.4-1.522 3.4-3.4s-1.523-3.4-3.4-3.4zm-2.971-17H25.192c-.641 0-1.2.406-1.411.992l-.068.261-1.491 8.947h27.2l-1.492-8.947c-.12-.723-.746-1.253-1.48-1.253z" mask="url(#prefix__b)"/>
        </g>
    </g>
</svg>
