<svg xmlns="http://www.w3.org/2000/svg" width="128" height="128" viewBox="0 0 128 128">
    <g fill="none" fill-rule="evenodd">
        <circle cx="64" cy="64" r="64" fill="#065856"/>
        <path fill="#FFF" d="M67.7 82c.276 0 .5.224.5.5v15c0 .276-.224.5-.5.5h-7.4c-.276 0-.5-.224-.5-.5v-15c0-.276.224-.5.5-.5h7.4zM64 30c5.43 8.667 12.897 14.667 22.4 18H66.55C73.061 55.067 81.545 60.067 92 63l-19.62.001c-2.793-1.908-5.356-4.01-7.687-6.306L64 56v4c8.485 8.667 20.152 14.667 35 18H29c13.07-2.934 23.674-7.934 31.814-15H36c11.879-3.333 21.212-9.333 28-18v-4c-2.011 2.568-4.246 4.902-6.704 7.001L41.6 48c9.503-3.333 16.97-9.333 22.4-18z"/>
    </g>
</svg>
