<svg xmlns="http://www.w3.org/2000/svg" width="90" height="110" viewBox="0 0 90 110">
    <g fill="none" fill-rule="evenodd">
        <circle cx="72" cy="92" r="18" fill="#CAC900"/>
        <circle cx="24.5" cy="24.5" r="24.5" fill="#CAC900"/>
        <path fill="#051A15" d="M49.5 76c.276 0 .5.224.5.5v15c0 .276-.224.5-.5.5h-5c-.276 0-.5-.224-.5-.5v-15c0-.276.224-.5.5-.5h5zM47 24c3.879 8.667 9.212 14.667 16 18l-14.178.002C53.472 49.067 59.532 54.066 67 57l-14.014.001c-1.995-1.908-3.826-4.01-5.491-6.306L47 50v4c6.06 8.667 14.394 14.667 25 18H22c9.336-2.934 16.91-7.934 22.724-15H27c8.485-3.333 15.152-9.333 20-18v-4c-1.437 2.568-3.033 4.902-4.789 7.001L31 42c6.788-3.333 12.121-9.333 16-18z"/>
    </g>
</svg>
